<svg width="1400" height="900" viewBox="0 0 1400 900" xmlns="http://www.w3.org/2000/svg" role="img" aria-label="G-code Studio node picker overlay">
  <defs>
    <linearGradient id="bg" x1="0" y1="0" x2="1" y2="1">
      <stop offset="0%" stop-color="#0f1418" />
      <stop offset="100%" stop-color="#111820" />
    </linearGradient>
    <linearGradient id="panel" x1="0" y1="0" x2="1" y2="1">
      <stop offset="0%" stop-color="#1a212a" />
      <stop offset="100%" stop-color="#141b22" />
    </linearGradient>
  </defs>
  <rect width="1400" height="900" fill="url(#bg)" />
  <rect x="160" y="140" width="1080" height="620" rx="24" fill="#0f151b" stroke="#26303a" />
  <rect x="200" y="190" width="1000" height="60" rx="14" fill="#141b22" stroke="#2b3440" />
  <text x="230" y="228" fill="#98a4b3" font-family="Inter, system-ui" font-size="16">Search nodes…</text>

  <text x="210" y="310" fill="#d3dae3" font-family="Inter, system-ui" font-size="16" font-weight="600">Generators</text>
  <rect x="210" y="330" width="420" height="56" rx="12" fill="url(#panel)" stroke="#2b3440" />
  <text x="232" y="364" fill="#e6edf3" font-family="Inter, system-ui" font-size="15">Pixel Mosaic Tile Generator</text>
  <rect x="210" y="396" width="420" height="56" rx="12" fill="url(#panel)" stroke="#2b3440" />
  <text x="232" y="430" fill="#e6edf3" font-family="Inter, system-ui" font-size="15">Vector Badge / Keychain Builder</text>

  <text x="720" y="310" fill="#d3dae3" font-family="Inter, system-ui" font-size="16" font-weight="600">Modifiers</text>
  <rect x="720" y="330" width="420" height="56" rx="12" fill="url(#panel)" stroke="#2b3440" />
  <text x="742" y="364" fill="#e6edf3" font-family="Inter, system-ui" font-size="15">Adaptive Layer Height Synthesizer</text>
  <rect x="720" y="396" width="420" height="56" rx="12" fill="url(#panel)" stroke="#2b3440" />
  <text x="742" y="430" fill="#e6edf3" font-family="Inter, system-ui" font-size="15">Seam Composer</text>

  <rect x="210" y="500" width="930" height="180" rx="18" fill="#121920" stroke="#2b3440" />
  <text x="240" y="548" fill="#7f8b99" font-family="Inter, system-ui" font-size="14">Preview</text>
  <text x="240" y="580" fill="#d3dae3" font-family="Inter, system-ui" font-size="18" font-weight="600">Multi-Color ToolPlan Optimizer</text>
  <text x="240" y="612" fill="#8c98a6" font-family="Inter, system-ui" font-size="14">Rules / Planner · Outputs ToolPlan + PurgePlan</text>
</svg>
